#N canvas 2403 0 1044 772 12;
#N canvas 2403 0 1044 772 guitar 0;
#N canvas 0 50 450 250 (subpatch) 0;
#X array array3 100 float 5;
#A 0 0 0 0 0 0 0 0 0 0 0 0 0 0 0 0 0 0 0 0 0 0 0 0 0 0 0 0 0 0 0 0 0 0 0 0 0 0 0 0 0 0 0 0 0 0 0 0 0 0 0 0 0 0 0 0 0 0 0 0 0 0 0 0 0 0 0 0 0 0 0 0 0 0 0 0 0 0 0 0 0 0 0 0 0 0 0 0 0 0 0 0 0 0 0 0 0 0 0 0 0;
#X coords 0 1 99 -1 493 221 1;
#X restore 626 890 graph;
#X obj 375 521 line~;
#X obj 375 545 pow~ 4;
#X obj 371 689 *~;
#X obj 451 704 hip~ 100;
#X obj 452 672 lop~ 2000;
#X obj 452 508 *~ 0.5;
#X obj 452 538 clip~ -0.6 0.6;
#X obj 451 611 -~ 1;
#X obj 452 643 +~;
#X obj 551 704 tgl 19 0 empty empty empty 0 -10 0 12 #fcfcfc #000000 #000000 0 1;
#X obj 551 732 metro 100;
#X obj 453 479 phasor~ 440;
#X text 451 451 La;
#X obj 551 759 tabwrite~ array3;
#X msg 375 496 1 \, 0 500;
#X obj 452 579 *~ 2;
#X obj 78 532 line~;
#X obj 78 556 pow~ 4;
#X obj 74 700 *~;
#X obj 154 715 hip~ 100;
#X obj 155 683 lop~ 2000;
#X obj 155 519 *~ 0.5;
#X obj 155 549 clip~ -0.6 0.6;
#X obj 154 622 -~ 1;
#X obj 155 654 +~;
#X obj 254 715 tgl 19 0 empty empty empty 0 -10 0 12 #fcfcfc #000000 #000000 0 1;
#X obj 254 743 metro 100;
#X obj 237 781 tabwrite~ array3;
#X msg 78 507 1 \, 0 500;
#X obj 155 590 *~ 2;
#X text 154 462 sol;
#X obj 156 490 phasor~ 392;
#X obj 94 794 throw~ \$0~output;
#X obj 417 811 throw~ \$0~output;
#X obj 1035 120 line~;
#X obj 1035 144 pow~ 4;
#X obj 1031 288 *~;
#X obj 1111 303 hip~ 100;
#X obj 1112 271 lop~ 2000;
#X obj 1112 107 *~ 0.5;
#X obj 1112 137 clip~ -0.6 0.6;
#X obj 1111 210 -~ 1;
#X obj 1112 242 +~;
#X obj 1211 303 tgl 19 0 empty empty empty 0 -10 0 12 #fcfcfc #000000 #000000 0 1;
#X obj 1211 331 metro 100;
#X obj 1211 358 tabwrite~ array3;
#X msg 1035 95 1 \, 0 500;
#X obj 1112 178 *~ 2;
#X obj 1051 382 throw~ \$0~output;
#X obj 1113 78 phasor~ 349.23;
#X text 1111 50 Fa;
#X obj 726 124 line~;
#X obj 726 148 pow~ 4;
#X obj 722 292 *~;
#X obj 802 307 hip~ 100;
#X obj 803 275 lop~ 2000;
#X obj 803 111 *~ 0.5;
#X obj 803 141 clip~ -0.6 0.6;
#X obj 802 214 -~ 1;
#X obj 803 246 +~;
#X obj 902 307 tgl 19 0 empty empty empty 0 -10 0 12 #fcfcfc #000000 #000000 0 1;
#X obj 902 335 metro 100;
#X obj 902 362 tabwrite~ array3;
#X msg 726 99 1 \, 0 500;
#X obj 803 182 *~ 2;
#X obj 742 386 throw~ \$0~output;
#X obj 804 82 phasor~ 329.63;
#X obj 724 68 r gb15;
#X obj 1033 64 r gb16;
#X obj 76 476 r gb17;
#X obj 373 465 r gb18;
#X obj 394 130 line~;
#X obj 394 154 pow~ 4;
#X obj 390 298 *~;
#X obj 470 313 hip~ 100;
#X obj 471 281 lop~ 2000;
#X obj 471 117 *~ 0.5;
#X obj 471 147 clip~ -0.6 0.6;
#X obj 470 220 -~ 1;
#X obj 471 252 +~;
#X obj 570 313 tgl 19 0 empty empty empty 0 -10 0 12 #fcfcfc #000000 #000000 0 1;
#X obj 570 341 metro 100;
#X obj 570 368 tabwrite~ array3;
#X msg 394 105 1 \, 0 500;
#X obj 471 188 *~ 2;
#X obj 410 392 throw~ \$0~output;
#X text 470 60 Re;
#X obj 472 87 phasor~ 293.66;
#X text 802 54 Mi;
#X obj 42 128 line~;
#X obj 42 152 pow~ 4;
#X obj 38 296 *~;
#X obj 118 311 hip~ 100;
#X obj 119 279 lop~ 2000;
#X obj 119 115 *~ 0.5;
#X obj 119 145 clip~ -0.6 0.6;
#X obj 118 218 -~ 1;
#X obj 119 250 +~;
#X obj 218 311 tgl 19 0 empty empty empty 0 -10 0 12 #fcfcfc #000000 #000000 0 1;
#X obj 218 339 metro 100;
#X obj 218 366 tabwrite~ array3;
#X msg 42 103 1 \, 0 500;
#X obj 119 186 *~ 2;
#X obj 58 390 throw~ \$0~output;
#X obj 120 85 phasor~ 261.23;
#X text 118 58 Do;
#X obj 731 521 line~;
#X obj 731 545 pow~ 4;
#X obj 727 689 *~;
#X obj 807 704 hip~ 100;
#X obj 808 672 lop~ 2000;
#X obj 808 508 *~ 0.5;
#X obj 808 538 clip~ -0.6 0.6;
#X obj 807 611 -~ 1;
#X obj 808 643 +~;
#X obj 907 704 tgl 19 0 empty empty empty 0 -10 0 12 #fcfcfc #000000 #000000 0 1;
#X obj 907 732 metro 100;
#X obj 907 759 tabwrite~ array3;
#X msg 731 496 1 \, 0 500;
#X obj 808 579 *~ 2;
#X obj 773 811 throw~ \$0~output;
#X text 807 451 Si;
#X obj 809 479 phasor~ 493.88;
#X obj 1077 536 line~;
#X obj 1077 560 pow~ 4;
#X obj 1073 704 *~;
#X obj 1153 719 hip~ 100;
#X obj 1154 687 lop~ 2000;
#X obj 1154 523 *~ 0.5;
#X obj 1154 553 clip~ -0.6 0.6;
#X obj 1153 626 -~ 1;
#X obj 1154 658 +~;
#X obj 1253 719 tgl 19 0 empty empty empty 0 -10 0 12 #fcfcfc #000000 #000000 0 1;
#X obj 1253 747 metro 100;
#X obj 1253 774 tabwrite~ array3;
#X msg 1077 511 1 \, 0 500;
#X obj 1154 594 *~ 2;
#X obj 1093 798 throw~ \$0~output;
#X text 1153 466 Do~;
#X obj 1155 493 phasor~ 550;
#X obj 40 72 r gb13;
#X obj 392 73 r gb14;
#X obj 729 465 r gb19;
#X obj 1075 480 r gb20;
#X obj 56 34 r rt13;
#X obj 395 38 r rt14;
#X obj 682 30 r rt15;
#X obj 995 30 r rt16;
#X obj 72 440 r rt17;
#X obj 356 424 r rt18;
#X obj 713 439 r rt19;
#X obj 1024 447 r rt20;
#X obj 40 326 *~ 1;
#X obj 392 328 *~ 1;
#X obj 723 322 *~ 1;
#X obj 1033 317 *~ 1;
#X obj 76 730 *~ 1;
#X obj 373 719 *~ 1;
#X obj 729 719 *~ 1;
#X obj 1075 734 *~ 1;
#X connect 1 0 2 0;
#X connect 2 0 3 0;
#X connect 3 0 158 0;
#X connect 4 0 3 1;
#X connect 5 0 4 0;
#X connect 6 0 7 0;
#X connect 7 0 16 0;
#X connect 8 0 9 0;
#X connect 9 0 5 0;
#X connect 10 0 11 0;
#X connect 11 0 14 0;
#X connect 12 0 6 0;
#X connect 15 0 1 0;
#X connect 16 0 8 0;
#X connect 17 0 18 0;
#X connect 18 0 19 0;
#X connect 19 0 157 0;
#X connect 20 0 19 1;
#X connect 21 0 20 0;
#X connect 22 0 23 0;
#X connect 23 0 30 0;
#X connect 24 0 25 0;
#X connect 25 0 21 0;
#X connect 26 0 27 0;
#X connect 27 0 28 0;
#X connect 29 0 17 0;
#X connect 30 0 24 0;
#X connect 32 0 22 0;
#X connect 35 0 36 0;
#X connect 36 0 37 0;
#X connect 37 0 156 0;
#X connect 38 0 37 1;
#X connect 39 0 38 0;
#X connect 40 0 41 0;
#X connect 41 0 48 0;
#X connect 42 0 43 0;
#X connect 43 0 39 0;
#X connect 44 0 45 0;
#X connect 45 0 46 0;
#X connect 47 0 35 0;
#X connect 48 0 42 0;
#X connect 50 0 40 0;
#X connect 52 0 53 0;
#X connect 53 0 54 0;
#X connect 54 0 155 0;
#X connect 55 0 54 1;
#X connect 56 0 55 0;
#X connect 57 0 58 0;
#X connect 58 0 65 0;
#X connect 59 0 60 0;
#X connect 60 0 56 0;
#X connect 61 0 62 0;
#X connect 62 0 63 0;
#X connect 64 0 52 0;
#X connect 65 0 59 0;
#X connect 67 0 57 0;
#X connect 68 0 64 0;
#X connect 69 0 47 0;
#X connect 70 0 29 0;
#X connect 71 0 15 0;
#X connect 72 0 73 0;
#X connect 73 0 74 0;
#X connect 74 0 154 0;
#X connect 75 0 74 1;
#X connect 76 0 75 0;
#X connect 77 0 78 0;
#X connect 78 0 85 0;
#X connect 79 0 80 0;
#X connect 80 0 76 0;
#X connect 81 0 82 0;
#X connect 82 0 83 0;
#X connect 84 0 72 0;
#X connect 85 0 79 0;
#X connect 88 0 77 0;
#X connect 90 0 91 0;
#X connect 91 0 92 0;
#X connect 92 0 153 0;
#X connect 93 0 92 1;
#X connect 94 0 93 0;
#X connect 95 0 96 0;
#X connect 96 0 103 0;
#X connect 97 0 98 0;
#X connect 98 0 94 0;
#X connect 99 0 100 0;
#X connect 100 0 101 0;
#X connect 102 0 90 0;
#X connect 103 0 97 0;
#X connect 105 0 95 0;
#X connect 107 0 108 0;
#X connect 108 0 109 0;
#X connect 109 0 159 0;
#X connect 110 0 109 1;
#X connect 111 0 110 0;
#X connect 112 0 113 0;
#X connect 113 0 120 0;
#X connect 114 0 115 0;
#X connect 115 0 111 0;
#X connect 116 0 117 0;
#X connect 117 0 118 0;
#X connect 119 0 107 0;
#X connect 120 0 114 0;
#X connect 123 0 112 0;
#X connect 124 0 125 0;
#X connect 125 0 126 0;
#X connect 126 0 160 0;
#X connect 127 0 126 1;
#X connect 128 0 127 0;
#X connect 129 0 130 0;
#X connect 130 0 137 0;
#X connect 131 0 132 0;
#X connect 132 0 128 0;
#X connect 133 0 134 0;
#X connect 134 0 135 0;
#X connect 136 0 124 0;
#X connect 137 0 131 0;
#X connect 140 0 129 0;
#X connect 141 0 102 0;
#X connect 142 0 84 0;
#X connect 143 0 119 0;
#X connect 144 0 136 0;
#X connect 145 0 102 0;
#X connect 146 0 84 0;
#X connect 147 0 64 0;
#X connect 148 0 47 0;
#X connect 149 0 29 0;
#X connect 150 0 15 0;
#X connect 151 0 119 0;
#X connect 152 0 136 0;
#X connect 153 0 101 0;
#X connect 153 0 104 0;
#X connect 154 0 83 0;
#X connect 154 0 86 0;
#X connect 155 0 63 0;
#X connect 155 0 66 0;
#X connect 156 0 46 0;
#X connect 156 0 49 0;
#X connect 157 0 28 0;
#X connect 157 0 33 0;
#X connect 158 0 14 0;
#X connect 158 0 34 0;
#X connect 159 0 118 0;
#X connect 159 0 121 0;
#X connect 160 0 135 0;
#X connect 160 0 138 0;
#X restore 168 179 pd guitar;
#N canvas 1924 27 1536 781 piano 0;
#X obj 85 73 r gb1;
#X obj 78 246 r gb2;
#X obj 79 401 r gb3;
#X obj 82 553 r gb4;
#X obj 86 716 r gb5;
#X obj 409 68 r gb6;
#X obj 423 222 r gb7;
#X obj 437 384 r gb8;
#X obj 46 122 r rt1;
#X obj 36 272 r rt2;
#X obj 28 418 r rt3;
#X obj 32 537 r rt4;
#X obj 39 691 r rt5;
#X obj 338 52 r rt6;
#X obj 344 251 r rt7;
#X obj 351 396 r rt8;
#X obj 120 183 throw~ \$0~output;
#X obj 408 174 throw~ \$0~output;
#X obj 97 337 throw~ \$0~output;
#X obj 420 337 throw~ \$0~output;
#X obj 104 499 throw~ \$0~output;
#X obj 449 495 throw~ \$0~output;
#X obj 89 659 throw~ \$0~output;
#X obj 93 810 throw~ \$0~output;
#N canvas 2701 148 450 374 piano_note_do 0;
#X obj 189 201 line~;
#X obj 190 231 pow~ 4;
#X obj 192 269 *~;
#X obj 192 293 +~;
#X msg 181 153 1 \, 0 500;
#X obj 145 118 bng 19 250 50 0 empty empty empty 0 -10 0 12 #fcfcfc #000000 #000000;
#X obj 159 50 inlet;
#X obj 191 336 outlet~;
#X obj 303 250 osc~ 261.63;
#X connect 0 0 1 0;
#X connect 1 0 2 0;
#X connect 2 0 3 0;
#X connect 3 0 7 0;
#X connect 4 0 0 0;
#X connect 5 0 4 0;
#X connect 6 0 5 0;
#X connect 8 0 2 1;
#X restore 105 123 pd piano_note_do;
#N canvas 952 0 958 956 piano_note_re 0;
#X obj 189 201 line~;
#X obj 190 231 pow~ 4;
#X obj 192 269 *~;
#X obj 192 293 +~;
#X obj 303 250 osc~ 293.66;
#X msg 181 153 1 \, 0 500;
#X obj 145 118 bng 19 250 50 0 empty empty empty 0 -10 0 12 #fcfcfc #000000 #000000;
#X obj 159 50 inlet;
#X obj 191 336 outlet~;
#X connect 0 0 1 0;
#X connect 1 0 2 0;
#X connect 2 0 3 0;
#X connect 3 0 8 0;
#X connect 4 0 2 1;
#X connect 5 0 0 0;
#X connect 6 0 5 0;
#X connect 7 0 6 0;
#X restore 99 296 pd piano_note_re;
#N canvas 1301 136 450 374 piano_note_mi 0;
#X obj 189 201 line~;
#X obj 190 231 pow~ 4;
#X obj 192 269 *~;
#X obj 192 293 +~;
#X msg 181 153 1 \, 0 500;
#X obj 145 118 bng 19 250 50 0 empty empty empty 0 -10 0 12 #fcfcfc #000000 #000000;
#X obj 159 50 inlet;
#X obj 191 336 outlet~;
#X obj 303 250 osc~ 329.63;
#X connect 0 0 1 0;
#X connect 1 0 2 0;
#X connect 2 0 3 0;
#X connect 3 0 7 0;
#X connect 4 0 0 0;
#X connect 5 0 4 0;
#X connect 6 0 5 0;
#X connect 8 0 2 1;
#X restore 100 451 pd piano_note_mi;
#N canvas 1301 136 450 350 piano_note_fa 0;
#X obj 189 201 line~;
#X obj 190 231 pow~ 4;
#X obj 192 269 *~;
#X obj 192 293 +~;
#X obj 145 118 bng 19 250 50 0 empty empty empty 0 -10 0 12 #fcfcfc #000000 #000000;
#X obj 159 50 inlet;
#X obj 191 336 outlet~;
#X msg 181 153 1 \, 0 200;
#X obj 303 250 osc~ 349.23;
#X connect 0 0 1 0;
#X connect 1 0 2 0;
#X connect 2 0 3 0;
#X connect 3 0 6 0;
#X connect 4 0 7 0;
#X connect 5 0 4 0;
#X connect 7 0 0 0;
#X connect 8 0 2 1;
#X restore 103 603 pd piano_note_fa;
#N canvas 1301 136 450 374 piano_note_sol 0;
#X obj 189 201 line~;
#X obj 190 231 pow~ 4;
#X obj 192 269 *~;
#X obj 192 293 +~;
#X msg 181 153 1 \, 0 500;
#X obj 145 118 bng 19 250 50 0 empty empty empty 0 -10 0 12 #fcfcfc #000000 #000000;
#X obj 159 50 inlet;
#X obj 191 336 outlet~;
#X obj 303 250 osc~ 392;
#X connect 0 0 1 0;
#X connect 1 0 2 0;
#X connect 2 0 3 0;
#X connect 3 0 7 0;
#X connect 4 0 0 0;
#X connect 5 0 4 0;
#X connect 6 0 5 0;
#X connect 8 0 2 1;
#X restore 107 766 pd piano_note_sol;
#N canvas 2863 171 450 350 piano_note_la 0;
#X obj 189 201 line~;
#X obj 190 231 pow~ 4;
#X obj 192 269 *~;
#X obj 192 293 +~;
#X msg 181 153 1 \, 0 500;
#X obj 145 118 bng 19 250 50 0 empty empty empty 0 -10 0 12 #fcfcfc #000000 #000000;
#X obj 159 50 inlet;
#X obj 191 336 outlet~;
#X obj 303 250 osc~ 440;
#X connect 0 0 1 0;
#X connect 1 0 2 0;
#X connect 2 0 3 0;
#X connect 3 0 7 0;
#X connect 4 0 0 0;
#X connect 5 0 4 0;
#X connect 6 0 5 0;
#X connect 8 0 2 1;
#X restore 431 118 pd piano_note_la;
#N canvas 1301 136 450 350 piano_note_si 0;
#X obj 189 201 line~;
#X obj 190 231 pow~ 4;
#X obj 192 269 *~;
#X obj 192 293 +~;
#X msg 181 153 1 \, 0 500;
#X obj 145 118 bng 19 250 50 0 empty empty empty 0 -10 0 12 #fcfcfc #000000 #000000;
#X obj 159 50 inlet;
#X obj 191 336 outlet~;
#X obj 303 250 osc~ 493.88;
#X connect 0 0 1 0;
#X connect 1 0 2 0;
#X connect 2 0 3 0;
#X connect 3 0 7 0;
#X connect 4 0 0 0;
#X connect 5 0 4 0;
#X connect 6 0 5 0;
#X connect 8 0 2 1;
#X restore 443 272 pd piano_note_si;
#N canvas 1301 136 450 398 piano_note_doM 0;
#X obj 189 201 line~;
#X obj 190 231 pow~ 4;
#X obj 192 269 *~;
#X obj 192 293 +~;
#X obj 122 158 r gt2;
#X msg 181 153 1 \, 0 500;
#X obj 145 118 bng 19 250 50 0 empty empty empty 0 -10 0 12 #fcfcfc #000000 #000000;
#X obj 159 50 inlet;
#X obj 191 336 outlet~;
#X obj 303 250 osc~ 550;
#X connect 0 0 1 0;
#X connect 1 0 2 0;
#X connect 2 0 3 0;
#X connect 3 0 8 0;
#X connect 4 0 0 0;
#X connect 5 0 0 0;
#X connect 6 0 5 0;
#X connect 7 0 6 0;
#X connect 9 0 2 1;
#X restore 455 442 pd piano_note_doM;
#X connect 0 0 24 0;
#X connect 1 0 25 0;
#X connect 2 0 26 0;
#X connect 3 0 27 0;
#X connect 4 0 28 0;
#X connect 5 0 29 0;
#X connect 6 0 30 0;
#X connect 7 0 31 0;
#X connect 8 0 24 0;
#X connect 9 0 25 0;
#X connect 10 0 26 0;
#X connect 11 0 27 0;
#X connect 12 0 28 0;
#X connect 13 0 29 0;
#X connect 14 0 30 0;
#X connect 15 0 31 0;
#X connect 24 0 16 0;
#X connect 25 0 18 0;
#X connect 26 0 20 0;
#X connect 27 0 22 0;
#X connect 28 0 23 0;
#X connect 29 0 17 0;
#X connect 30 0 19 0;
#X connect 31 0 21 0;
#X restore 26 175 pd piano;
#N canvas 2168 64 1100 956 drum 0;
#X obj 123 177 line~;
#X obj 124 205 sqrt~;
#X obj 125 238 *~ 20;
#X obj 126 286 -~ 0.25;
#X obj 128 332 cos~;
#X obj 128 382 throw~ \$0~output;
#X obj 323 156 t b b;
#X msg 324 182 1 \, 0 100;
#X obj 324 206 line~;
#X obj 324 230 pow~ 4;
#X obj 324 254 *~;
#X obj 383 235 osc~ 200;
#X obj 324 278 +~;
#X obj 325 327 throw~ \$0~output;
#X msg 463 184 1 \, 0 200;
#X obj 463 208 line~;
#X obj 463 256 *~;
#X obj 533 213 noise~;
#X obj 463 232 pow~ 4;
#X obj 524 240 hip~ 3000;
#X obj 522 271 bp~ 5000 2;
#X obj 117 70 r rit1;
#X obj 352 92 r rit2;
#X msg 125 148 0 \, 1 200;
#X obj 725 273 line~;
#X obj 725 297 pow~ 4;
#X obj 725 321 *~;
#X obj 823 254 hip~ 8000;
#X obj 824 291 hip~ 8000;
#X obj 725 369 throw~ \$0~output;
#X obj 662 42 phasor~ 350;
#X obj 662 66 *~ 2;
#X obj 662 90 -~ 1;
#X obj 764 71 *~ 2;
#X obj 764 95 -~ 1;
#X obj 764 47 phasor~ 800;
#X obj 818 218 hip~ 8000;
#X obj 823 162 noise~;
#X obj 824 189 /~ 4;
#X obj 722 207 r rit3;
#X obj 725 345 *~ 50;
#X msg 725 248 1 \, 0 200;
#X obj 662 121 +~;
#X obj 183 104 r gb9;
#X obj 451 111 r gb10;
#X obj 649 176 r gb11;
#X connect 0 0 1 0;
#X connect 1 0 2 0;
#X connect 2 0 3 0;
#X connect 3 0 4 0;
#X connect 4 0 5 0;
#X connect 6 0 7 0;
#X connect 6 1 14 0;
#X connect 7 0 8 0;
#X connect 8 0 9 0;
#X connect 9 0 10 0;
#X connect 10 0 12 0;
#X connect 11 0 10 1;
#X connect 12 0 13 0;
#X connect 14 0 15 0;
#X connect 15 0 18 0;
#X connect 16 0 12 1;
#X connect 17 0 19 0;
#X connect 18 0 16 0;
#X connect 19 0 20 0;
#X connect 20 0 16 1;
#X connect 21 0 23 0;
#X connect 22 0 6 0;
#X connect 23 0 0 0;
#X connect 24 0 25 0;
#X connect 25 0 26 0;
#X connect 26 0 40 0;
#X connect 27 0 28 0;
#X connect 28 0 26 1;
#X connect 30 0 31 0;
#X connect 31 0 32 0;
#X connect 32 0 42 0;
#X connect 33 0 34 0;
#X connect 34 0 42 1;
#X connect 35 0 33 0;
#X connect 36 0 27 0;
#X connect 37 0 38 0;
#X connect 38 0 36 0;
#X connect 39 0 41 0;
#X connect 40 0 29 0;
#X connect 41 0 24 0;
#X connect 42 0 36 0;
#X connect 43 0 23 0;
#X connect 44 0 6 0;
#X connect 45 0 41 0;
#X restore 102 175 pd drum;
#N canvas 1653 54 1536 781 buttons 0;
#X obj 127 197 netreceive -u -b;
#X obj 136 256 oscparse;
#X obj 136 319 list trim;
#X obj 696 375 route gridButton1 gridButton2 gridButton3 gridButton4 gridButton5 gridButton6 gridButton7 gridButton8 gridButton9 gridButton10 gridButton11 gridButton12 gridButton13 gridButton14 gridButton15 gridButton16 gridButton17 gridButton18 gridButton19 gridButton20 gridButton21 gridButton22 gridButton23 gridButton24, f 158;
#X obj 710 24 route slider1 slider2 slider3 slider4;
#X obj 708 132 route toggle1 toggle2 toggle3;
#X obj 1058 17 route button1 button2 button3;
#X obj 474 570 route slider2Dx slider2Dy;
#X obj 705 237 route gridToggle1 gridToggle2 gridToggle3 gridToggle4 gridToggle5 gridToggle6 gridToggle7 gridToggle8 gridToggle9 gridToggle10 gridToggle11 gridToggle12 gridToggle13 gridToggle14 gridToggle15 gridToggle16 gridToggle17 gridToggle18 gridToggle19 gridToggle20 gridToggle21 gridToggle22 gridToggle23 gridToggle24, f 157;
#X floatatom 711 56 5 0 0 0 - - - 0;
#X floatatom 776 59 5 0 0 0 - - - 0;
#X floatatom 837 60 5 0 0 0 - - - 0;
#X floatatom 902 64 5 0 0 0 - - - 0;
#X obj 716 92 s s1;
#X obj 776 96 s s2;
#X obj 839 100 s s3;
#X obj 908 99 s s4;
#X floatatom 712 174 5 0 0 0 - - - 0;
#X floatatom 768 173 5 0 0 0 - - - 0;
#X floatatom 839 175 5 0 0 0 - - - 0;
#X floatatom 704 296 5 0 0 0 - - - 0;
#X floatatom 749 296 5 0 0 0 - - - 0;
#X floatatom 794 295 5 0 0 0 - - - 0;
#X floatatom 839 296 5 0 0 0 - - - 0;
#X floatatom 884 296 5 0 0 0 - - - 0;
#X floatatom 929 295 5 0 0 0 - - - 0;
#X floatatom 977 294 5 0 0 0 - - - 0;
#X floatatom 1022 294 5 0 0 0 - - - 0;
#X floatatom 1067 293 5 0 0 0 - - - 0;
#X floatatom 1115 293 5 0 0 0 - - - 0;
#X floatatom 1160 293 5 0 0 0 - - - 0;
#X floatatom 1205 292 5 0 0 0 - - - 0;
#X floatatom 1250 291 5 0 0 0 - - - 0;
#X floatatom 1295 291 5 0 0 0 - - - 0;
#X floatatom 1340 290 5 0 0 0 - - - 0;
#X floatatom 1388 289 5 0 0 0 - - - 0;
#X floatatom 1433 289 5 0 0 0 - - - 0;
#X floatatom 1478 288 5 0 0 0 - - - 0;
#X floatatom 1525 285 5 0 0 0 - - - 0;
#X floatatom 1570 285 5 0 0 0 - - - 0;
#X floatatom 1615 284 5 0 0 0 - - - 0;
#X floatatom 1661 282 5 0 0 0 - - - 0;
#X floatatom 1706 282 5 0 0 0 - - - 0;
#X floatatom 1751 281 5 0 0 0 - - - 0;
#X obj 704 326 s gt1;
#X obj 753 326 s gt2;
#X obj 797 325 s gt3;
#X obj 840 325 s gt4;
#X obj 1048 124 s b1;
#X obj 884 324 s gt5;
#X obj 932 324 s gt6;
#X obj 976 323 s gt7;
#X obj 1019 323 s gt8;
#X obj 1062 322 s gt9;
#X obj 1104 322 s gt10;
#X obj 1154 323 s gt11;
#X obj 1202 323 s gt12;
#X obj 1252 322 s gt13;
#X obj 1300 322 s gt14;
#X obj 1344 321 s gt15;
#X obj 1387 321 s gt16;
#X obj 1435 320 s gt17;
#X obj 1483 320 s gt18;
#X obj 1527 320 s gt19;
#X obj 1570 320 s gt20;
#X obj 1615 319 s gt21;
#X obj 1663 319 s gt22;
#X obj 1707 318 s gt23;
#X obj 1750 318 s gt24;
#X floatatom 476 617 5 0 0 0 - - - 0;
#X floatatom 553 613 5 0 0 0 - - - 0;
#X obj 1112 52 s b2;
#X obj 1186 54 s b3;
#X obj 714 209 s t1;
#X obj 768 203 s t2;
#X obj 842 206 s t3;
#X floatatom 1050 80 5 0 0 0 - - - 0;
#X obj 697 479 s gb1;
#X obj 741 478 s gb2;
#X obj 785 477 s gb3;
#X obj 828 477 s gb4;
#X obj 872 476 s gb5;
#X obj 920 476 s gb6;
#X obj 965 475 s gb7;
#X obj 1007 475 s gb8;
#X obj 1050 474 s gb9;
#X obj 1092 474 s gb10;
#X obj 1142 475 s gb11;
#X obj 1190 475 s gb12;
#X obj 1240 474 s gb13;
#X obj 1289 474 s gb14;
#X obj 1332 473 s gb15;
#X obj 1375 473 s gb16;
#X obj 1423 472 s gb17;
#X obj 1471 472 s gb18;
#X obj 1517 472 s gb19;
#X obj 1558 472 s gb20;
#X obj 1603 471 s gb21;
#X obj 1651 471 s gb22;
#X obj 1696 470 s gb23;
#X obj 1738 470 s gb24;
#X obj 15 392 print;
#X msg 101 118 listen 8101;
#X obj 1523 309 f;
#X msg 1564 284 0;
#X obj 1521 262 bng 19 250 50 0 empty empty empty 0 -10 0 12 #fcfcfc #000000 #000000;
#X obj 1209 519 s sec;
#X obj 80 66 inlet;
#X obj 476 671 s sd1;
#X obj 555 660 s sd2;
#X connect 0 0 1 0;
#X connect 1 0 101 0;
#X connect 1 0 2 0;
#X connect 2 0 3 0;
#X connect 2 0 4 0;
#X connect 2 0 5 0;
#X connect 2 0 8 0;
#X connect 2 0 7 0;
#X connect 2 0 6 0;
#X connect 3 0 77 0;
#X connect 3 0 106 0;
#X connect 3 1 78 0;
#X connect 3 1 106 0;
#X connect 3 2 79 0;
#X connect 3 2 106 0;
#X connect 3 3 80 0;
#X connect 3 3 106 0;
#X connect 3 4 81 0;
#X connect 3 4 106 0;
#X connect 3 5 82 0;
#X connect 3 5 106 0;
#X connect 3 6 83 0;
#X connect 3 6 106 0;
#X connect 3 7 84 0;
#X connect 3 7 106 0;
#X connect 3 8 85 0;
#X connect 3 8 106 0;
#X connect 3 9 86 0;
#X connect 3 9 106 0;
#X connect 3 10 87 0;
#X connect 3 10 106 0;
#X connect 3 11 88 0;
#X connect 3 11 106 0;
#X connect 3 12 89 0;
#X connect 3 12 106 0;
#X connect 3 13 90 0;
#X connect 3 13 106 0;
#X connect 3 14 91 0;
#X connect 3 14 106 0;
#X connect 3 15 92 0;
#X connect 3 15 106 0;
#X connect 3 16 93 0;
#X connect 3 16 106 0;
#X connect 3 17 94 0;
#X connect 3 17 106 0;
#X connect 3 18 95 0;
#X connect 3 18 106 0;
#X connect 3 19 96 0;
#X connect 3 19 106 0;
#X connect 3 20 97 0;
#X connect 3 21 98 0;
#X connect 3 22 99 0;
#X connect 3 22 106 0;
#X connect 3 23 100 0;
#X connect 3 23 106 0;
#X connect 4 0 9 0;
#X connect 4 1 10 0;
#X connect 4 2 11 0;
#X connect 4 3 12 0;
#X connect 5 0 17 0;
#X connect 5 1 18 0;
#X connect 5 2 19 0;
#X connect 6 0 76 0;
#X connect 6 1 71 0;
#X connect 6 2 72 0;
#X connect 7 0 69 0;
#X connect 7 1 70 0;
#X connect 8 0 20 0;
#X connect 8 1 21 0;
#X connect 8 2 22 0;
#X connect 8 3 23 0;
#X connect 8 4 24 0;
#X connect 8 5 25 0;
#X connect 8 6 26 0;
#X connect 8 7 27 0;
#X connect 8 8 28 0;
#X connect 8 9 29 0;
#X connect 8 10 30 0;
#X connect 8 11 31 0;
#X connect 8 12 32 0;
#X connect 8 13 33 0;
#X connect 8 14 34 0;
#X connect 8 15 35 0;
#X connect 8 16 36 0;
#X connect 8 17 37 0;
#X connect 8 18 38 0;
#X connect 8 19 39 0;
#X connect 8 20 40 0;
#X connect 8 21 41 0;
#X connect 8 22 42 0;
#X connect 8 23 43 0;
#X connect 9 0 13 0;
#X connect 10 0 14 0;
#X connect 11 0 15 0;
#X connect 12 0 16 0;
#X connect 17 0 73 0;
#X connect 18 0 74 0;
#X connect 19 0 75 0;
#X connect 20 0 44 0;
#X connect 21 0 45 0;
#X connect 22 0 46 0;
#X connect 23 0 47 0;
#X connect 24 0 49 0;
#X connect 25 0 50 0;
#X connect 26 0 51 0;
#X connect 27 0 52 0;
#X connect 28 0 53 0;
#X connect 29 0 54 0;
#X connect 30 0 55 0;
#X connect 31 0 56 0;
#X connect 32 0 57 0;
#X connect 33 0 58 0;
#X connect 34 0 59 0;
#X connect 35 0 60 0;
#X connect 36 0 61 0;
#X connect 37 0 62 0;
#X connect 38 0 63 0;
#X connect 39 0 64 0;
#X connect 40 0 65 0;
#X connect 41 0 66 0;
#X connect 42 0 67 0;
#X connect 43 0 68 0;
#X connect 69 0 108 0;
#X connect 70 0 109 0;
#X connect 76 0 48 0;
#X connect 102 0 0 0;
#X connect 104 0 103 1;
#X connect 105 0 103 0;
#X connect 107 0 102 0;
#X restore 65 82 pd buttons;
#X obj 29 37 bng 19 250 50 0 empty empty empty 0 -10 0 12 #fcfcfc #000000 #000000;
#X text 23 131 Instruments;
#X text 22 13 App buttons;
#N canvas 1924 0 1536 781 waves 1;
#X obj 87 87 hsl 162 19 0 127 0 0 empty empty empty -2 -10 0 12 #ffc7c6 #000000 #000000 0 1;
#X obj 73 189 dac~;
#X obj 161 174 metro 100;
#X obj 161 145 tgl 19 0 empty empty empty 0 -10 0 12 #fcfcfc #000000 #000000 0 1;
#X obj 146 204 tabwrite~ Osc;
#X obj 319 85 hsl 162 19 0 127 0 0 empty empty empty -2 -10 0 12 #ffe3c6 #000000 #000000 0 1;
#X obj 569 296 dac~;
#X obj 387 174 metro 100;
#X obj 386 117 tgl 19 0 empty empty empty 0 -10 0 12 #fcfcfc #000000 #000000 0 1;
#X obj 387 146 tgl 19 0 empty empty empty 0 -10 0 12 #fcfcfc #000000 #000000 0 1;
#X obj 385 229 tabwrite~ Osc;
#N canvas 0 50 450 250 (subpatch) 0;
#X array Osc 100 float 5;
#A 0 0 0 0 0 0 0 0 0 0 0 0 0 0 0 0 0 0 0 0 0 0 0 0 0 0 0 0 0 0 0 0 0 0 0 0 0 0 0 0 0 0 0 0 0 0 0 0 0 0 0 0 0 0 0 0 0 0 0 0 0 0 0 0 0 0 0 0 0 0 0 0 0 0 0 0 0 0 0 0 0 0 0 0 0 0 0 0 0 0 0 0 0 0 0 0 0 0 0 0 0;
#X coords 0 1 99 -1 432 217 1;
#X restore 66 483 graph;
#X obj 87 277 hsl 162 19 0 127 0 0 empty empty empty -2 -10 0 12 #c6ffc7 #000000 #000000 0 1;
#X obj 21 533 dac~;
#X obj 178 362 metro 100;
#X obj 178 332 tgl 19 0 empty empty empty 0 -10 0 12 #fcfcfc #000000 #000000 0 1;
#X obj 155 395 tabwrite~ Osc;
#X text 83 56 Sin;
#X text 316 60 Saw;
#X text 81 255 Triangle;
#X obj 403 251 hsl 162 19 0 127 0 0 empty empty empty -2 -10 0 12 #c7c6ff #000000 #000000 0 1;
#X obj 309 370 dac~;
#X obj 404 356 metro 100;
#X obj 404 304 tgl 19 0 empty empty empty 0 -10 0 12 #fcfcfc #000000 #000000 0 1;
#X obj 404 328 tgl 19 0 empty empty empty 0 -10 0 12 #fcfcfc #000000 #000000 0 1;
#X obj 383 383 tabwrite~ Osc;
#X text 320 253 Square;
#N canvas 2824 295 450 300 sin 0;
#X obj 93 75 mtof;
#X obj 93 99 osc~;
#X obj 92 165 *~;
#X text 94 20 Sin;
#X obj 93 49 inlet;
#X obj 153 135 inlet;
#X obj 92 203 outlet~;
#X connect 0 0 1 0;
#X connect 1 0 2 0;
#X connect 2 0 6 0;
#X connect 4 0 0 0;
#X connect 5 0 2 1;
#X restore 84 133 pd sin;
#X obj 161 114 tgl 19 0 empty empty empty 0 -10 0 12 #fcfcfc #000000 #000000 0 1;
#N canvas 2564 274 450 300 saw 0;
#X obj 83 78 mtof;
#X obj 82 159 *~;
#X obj 83 102 phasor~;
#X obj 83 39 inlet;
#X obj 127 133 inlet;
#X obj 82 183 outlet~;
#X connect 0 0 2 0;
#X connect 1 0 5 0;
#X connect 2 0 1 0;
#X connect 3 0 0 0;
#X connect 4 0 1 1;
#X restore 316 136 pd saw;
#N canvas 2626 351 450 300 triangle 0;
#X obj 16 35 mtof;
#X obj 14 266 *~;
#X obj 16 59 phasor~;
#X obj 50 107 *~ -1;
#X obj 50 131 +~ 1;
#X obj 15 183 min~;
#X obj 15 207 *~ 4;
#X obj 15 231 -~ 1;
#X obj 16 10 inlet;
#X obj 60 247 inlet;
#X obj 14 294 outlet~;
#X connect 0 0 2 0;
#X connect 1 0 10 0;
#X connect 2 0 3 0;
#X connect 2 0 5 0;
#X connect 3 0 4 0;
#X connect 4 0 5 1;
#X connect 5 0 6 0;
#X connect 6 0 7 0;
#X connect 7 0 1 0;
#X connect 8 0 0 0;
#X connect 9 0 1 1;
#X restore 84 323 pd triangle;
#X obj 176 304 tgl 19 0 empty empty empty 0 -10 0 12 #fcfcfc #000000 #000000 0 1;
#N canvas 2749 293 450 300 square 0;
#X obj 34 49 mtof;
#X obj 34 164 *~;
#X obj 34 73 phasor~;
#X obj 34 120 expr~ $v1 > 0.5;
#X obj 79 145 inlet;
#X obj 34 23 inlet;
#X obj 34 188 outlet~;
#X connect 0 0 2 0;
#X connect 1 0 6 0;
#X connect 2 0 3 0;
#X connect 3 0 1 0;
#X connect 4 0 1 1;
#X connect 5 0 0 0;
#X restore 321 323 pd square;
#X obj 876 400 catch~ \$0~output;
#X obj 884 499 /~ 5;
#X obj 1067 766 dac~ 1 2;
#X obj 23 71 r s1;
#X obj 271 106 r s2;
#X obj 40 285 r s3;
#X obj 235 124 r t1;
#X obj 235 315 r t3;
#X obj 465 122 r t2;
#X obj 1096 632 *~;
#X floatatom 1106 493 5 0 0 0 - - - 0;
#X obj 1213 440 tgl 19 0 empty empty empty 0 -10 0 12 #fcfcfc #000000 #000000 0 1;
#X obj 1213 464 metro 60;
#X obj 1176 512 bng 19 250 50 0 empty empty empty 0 -10 0 12 #fcfcfc #000000 #000000;
#X obj 1260 701 tabwrite~ array1;
#N canvas 0 50 450 250 (subpatch) 0;
#X array array1 100 float 3;
#A 0 0 0 0 0 0 0 0 0 0 0 0 0 0 0 0 0 0 0 0 0 0 0 0 0 0 0 0 0 0 0 0 0 0 0 0 0 0 0 0 0 0 0 0 0 0 0 0 0 0 0 0 0 0 0 0 0 0 0 0 0 0 0 0 0 0 0 0 0 0 0 0 0 0 0 0 0 0 0 0 0 0 0 0 0 0 0 0 0 0 0 0 0 0 0 0 0 0 0 0 0;
#X coords 0 1 100 -1 200 140 1 0 0;
#X restore 1458 254 graph;
#X obj 1104 429 r s4;
#X obj 13 216 *~;
#X floatatom 28 164 5 0 0 0 - - - 0;
#X obj 7 108 r s4;
#X obj 585 245 *~;
#X floatatom 595 106 5 0 0 0 - - - 0;
#X obj 593 42 r s4;
#X obj 46 438 *~;
#X floatatom 27 379 5 0 0 0 - - - 0;
#X obj 25 315 r s4;
#X obj 41 33 r sd1;
#X obj 269 50 r sd2;
#X connect 0 0 27 0;
#X connect 2 0 4 0;
#X connect 3 0 2 0;
#X connect 5 0 29 0;
#X connect 7 0 10 0;
#X connect 8 0 29 1;
#X connect 9 0 7 0;
#X connect 14 0 16 0;
#X connect 15 0 14 0;
#X connect 20 0 32 0;
#X connect 22 0 25 0;
#X connect 23 0 32 1;
#X connect 24 0 22 0;
#X connect 27 0 4 0;
#X connect 27 0 50 0;
#X connect 28 0 27 1;
#X connect 29 0 10 0;
#X connect 29 0 53 0;
#X connect 30 0 16 0;
#X connect 30 0 56 0;
#X connect 31 0 30 1;
#X connect 32 0 21 0;
#X connect 32 0 21 1;
#X connect 32 0 25 0;
#X connect 33 0 34 0;
#X connect 34 0 42 0;
#X connect 36 0 27 0;
#X connect 37 0 29 0;
#X connect 38 0 30 0;
#X connect 39 0 28 0;
#X connect 40 0 31 0;
#X connect 41 0 8 0;
#X connect 42 0 47 0;
#X connect 42 0 35 0;
#X connect 42 0 35 1;
#X connect 43 0 42 1;
#X connect 44 0 45 0;
#X connect 45 0 46 0;
#X connect 46 0 47 0;
#X connect 49 0 43 0;
#X connect 50 0 1 0;
#X connect 50 0 1 1;
#X connect 51 0 50 1;
#X connect 52 0 51 0;
#X connect 53 0 6 0;
#X connect 53 0 6 1;
#X connect 54 0 53 1;
#X connect 55 0 54 0;
#X connect 56 0 13 0;
#X connect 56 0 13 1;
#X connect 57 0 56 1;
#X connect 58 0 57 0;
#X connect 59 0 0 0;
#X connect 60 0 5 0;
#X restore 247 180 pd waves;
#N canvas 161 -22 1920 997 record 0;
#X obj 79 225 bng 19 250 50 0 empty empty empty 0 -10 0 12 #fcfcfc #000000 #000000;
#X obj 174 349 list store;
#X msg 183 290 append \$1;
#X obj 162 425 t l l;
#X msg 214 390 0 250 250 500;
#X listbox 194 470 35 0 0 0 - - - 0;
#X obj 194 493 print start;
#X obj 152 528 list split 1;
#X floatatom 150 563 5 0 0 0 - - - 0;
#X obj 144 615 del;
#X obj 159 694 bng 19 250 50 0 empty empty empty 0 -10 0 12 #fcfcfc #000000 #000000;
#X obj 159 718 print bang;
#X obj 216 584 list;
#X listbox 237 618 20 0 0 0 - - - 0;
#X obj 275 557 bng 19 250 50 0 empty empty empty 0 -10 0 12 #fcfcfc #000000 #000000;
#X obj 275 581 print done;
#X obj 81 398 bng 19 250 50 0 empty empty empty 0 -10 0 12 #fcfcfc #000000 #000000;
#X obj 861 162 sel 1;
#X obj 849 210 bng 19 250 50 0 empty empty empty 0 -10 0 12 #fcfcfc #000000 #000000;
#X obj 897 213 bng 19 250 50 0 empty empty empty 0 -10 0 12 #fcfcfc #000000 #000000;
#X obj 861 270 realtime;
#X obj 788 33 f;
#X obj 796 73 + 1;
#X msg 829 8 0;
#X floatatom 765 100 5 0 0 0 - - - 0;
#X msg 776 132 set \$1;
#X obj 869 93 mod 2;
#X msg 769 170 0;
#X obj 724 84 bng 19 250 50 0 empty empty empty 0 -10 0 12 #fcfcfc #000000 #000000;
#X obj 783 227 del 1;
#X obj 462 300 bng 19 250 50 0 empty empty empty 0 -10 0 12 #fcfcfc #000000 #000000;
#X obj 250 794 sel 1 2 3 4 5 6 7 8 9 10 11 12 13 14 15 16 17 18 19 20 21 22 23 24;
#X obj 546 364 list store;
#X msg 685 336 append \$1;
#X obj 534 440 t l l;
#X msg 586 405 0 250 250 500;
#X listbox 566 485 134 0 0 0 - - - 0;
#X obj 566 508 print start;
#X obj 524 543 list split 1;
#X floatatom 512 572 5 0 0 0 - - - 0;
#X obj 588 599 list;
#X listbox 651 649 20 0 0 0 - - - 0;
#X obj 647 572 bng 19 250 50 0 empty empty empty 0 -10 0 12 #fcfcfc #000000 #000000;
#X obj 647 596 print done;
#X floatatom 863 324 5 0 0 0 - - - 0;
#X msg 873 409 0.0891;
#X msg 867 366 set \$1;
#X text 509 289 boton para reiniciar secuencia;
#X obj 356 129 r sec;
#X obj 530 668 +;
#X floatatom 490 709 5 0 0 0 - - - 0;
#X msg 430 668 0;
#X obj 349 739 metro \$1;
#X text 93 184 boton para iniciar secuencia;
#X obj 36 169 r gb21;
#X obj 225 848 s gb1;
#X obj 250 870 s gb2;
#X obj 428 243 r gb22;
#X obj 265 894 s gb3;
#X obj 294 873 s gb4;
#X obj 309 847 s gb5;
#X obj 341 872 s gb6;
#X obj 362 893 s gb7;
#X obj 385 871 s gb8;
#X obj 407 849 s gb9;
#X obj 434 873 s gb10;
#X obj 455 896 s gb11;
#X obj 478 873 s gb12;
#X obj 497 851 s gb13;
#X obj 522 876 s gb14;
#X obj 542 898 s gb15;
#X obj 565 874 s gb16;
#X obj 584 855 s gb17;
#X obj 607 874 s gb18;
#X obj 628 900 s gb19;
#X obj 651 878 s gb20;
#X obj 673 858 s gb21;
#X obj 698 878 s gb22;
#X obj 717 903 s gb23;
#X obj 746 879 s gb24;
#X connect 0 0 1 0;
#X connect 0 0 32 0;
#X connect 1 0 3 0;
#X connect 2 0 1 0;
#X connect 3 0 7 0;
#X connect 3 1 5 0;
#X connect 4 0 3 0;
#X connect 5 0 6 0;
#X connect 7 0 8 0;
#X connect 7 1 12 1;
#X connect 7 2 14 0;
#X connect 8 0 31 0;
#X connect 9 0 10 0;
#X connect 9 0 12 0;
#X connect 9 0 40 0;
#X connect 10 0 11 0;
#X connect 12 0 13 0;
#X connect 12 0 7 0;
#X connect 14 0 15 0;
#X connect 16 0 1 0;
#X connect 17 0 18 0;
#X connect 17 1 19 0;
#X connect 18 0 20 0;
#X connect 19 0 20 1;
#X connect 19 0 29 0;
#X connect 20 0 44 0;
#X connect 21 0 22 0;
#X connect 22 0 21 1;
#X connect 22 0 26 0;
#X connect 23 0 21 1;
#X connect 24 0 25 0;
#X connect 25 0 27 0;
#X connect 26 0 24 0;
#X connect 27 0 17 0;
#X connect 28 0 27 0;
#X connect 28 0 21 0;
#X connect 28 0 45 0;
#X connect 29 0 18 0;
#X connect 30 0 1 1;
#X connect 30 0 32 1;
#X connect 30 0 51 0;
#X connect 31 0 55 0;
#X connect 31 1 56 0;
#X connect 31 2 58 0;
#X connect 31 3 59 0;
#X connect 31 4 60 0;
#X connect 31 5 61 0;
#X connect 31 6 62 0;
#X connect 31 7 63 0;
#X connect 31 8 64 0;
#X connect 31 9 65 0;
#X connect 31 10 66 0;
#X connect 31 11 67 0;
#X connect 31 12 68 0;
#X connect 31 13 69 0;
#X connect 31 14 70 0;
#X connect 31 15 71 0;
#X connect 31 16 72 0;
#X connect 31 17 73 0;
#X connect 31 18 74 0;
#X connect 31 19 75 0;
#X connect 31 20 76 0;
#X connect 31 21 77 0;
#X connect 31 22 78 0;
#X connect 31 23 79 0;
#X connect 32 0 34 0;
#X connect 33 0 32 0;
#X connect 34 0 38 0;
#X connect 34 1 36 0;
#X connect 35 0 34 0;
#X connect 36 0 37 0;
#X connect 38 0 39 0;
#X connect 38 1 40 1;
#X connect 38 2 42 0;
#X connect 39 0 9 0;
#X connect 39 0 49 1;
#X connect 40 0 41 0;
#X connect 40 0 38 0;
#X connect 42 0 43 0;
#X connect 44 0 46 0;
#X connect 45 0 33 0;
#X connect 46 0 45 0;
#X connect 48 0 2 0;
#X connect 48 0 28 0;
#X connect 49 0 50 0;
#X connect 50 0 49 0;
#X connect 51 0 50 0;
#X connect 54 0 0 0;
#X connect 57 0 30 0;
#X restore 385 294 pd record;
#N canvas 1386 84 1920 997 random_drum 0;
#X obj 124 164 random 3;
#X obj 126 218 sel 0 1 2;
#X obj 45 254 s rit1;
#X obj 197 301 s rit3;
#X obj 106 294 s rit2;
#X obj 277 92 i;
#X obj 329 89 + 1;
#X floatatom 18 194 5 0 0 0 - - - 0;
#X msg 288 273 seed 448;
#X obj 282 202 sel 0 1;
#X obj 281 144 % 10;
#X floatatom 371 174 5 0 0 0 - - - 0;
#X obj 124 108 metro 300;
#X obj 582 55 tgl 19 0 empty empty empty 0 -10 0 12 #fcfcfc #000000 #000000 0 1;
#X obj 581 164 random 3;
#X obj 583 218 sel 0 1 2;
#X obj 502 254 s rit1;
#X obj 654 301 s rit3;
#X obj 563 294 s rit2;
#X obj 734 92 i;
#X obj 786 89 + 1;
#X floatatom 475 194 5 0 0 0 - - - 0;
#X obj 739 202 sel 0 1;
#X obj 738 144 % 10;
#X floatatom 828 174 5 0 0 0 - - - 0;
#X obj 581 108 metro 300;
#X obj 1016 55 tgl 19 0 empty empty empty 0 -10 0 12 #fcfcfc #000000 #000000 0 1;
#X obj 1015 164 random 3;
#X obj 1017 218 sel 0 1 2;
#X obj 936 254 s rit1;
#X obj 1088 301 s rit3;
#X obj 997 294 s rit2;
#X obj 1168 92 i;
#X obj 1220 89 + 1;
#X floatatom 909 194 5 0 0 0 - - - 0;
#X obj 1173 202 sel 0 1;
#X obj 1172 144 % 10;
#X floatatom 1262 174 5 0 0 0 - - - 0;
#X obj 1015 108 metro 300;
#X obj 1536 60 tgl 19 0 empty empty empty 0 -10 0 12 #fcfcfc #000000 #000000 0 1;
#X obj 1535 169 random 3;
#X obj 1537 223 sel 0 1 2;
#X obj 1456 259 s rit1;
#X obj 1608 306 s rit3;
#X obj 1517 299 s rit2;
#X obj 1688 97 i;
#X obj 1740 94 + 1;
#X floatatom 1429 199 5 0 0 0 - - - 0;
#X obj 1693 207 sel 0 1;
#X obj 1692 149 % 10;
#X floatatom 1782 179 5 0 0 0 - - - 0;
#X obj 1535 113 metro 300;
#X obj 123 425 tgl 19 0 empty empty empty 0 -10 0 12 #fcfcfc #000000 #000000 0 1;
#X obj 122 534 random 3;
#X obj 124 588 sel 0 1 2;
#X obj 43 624 s rit1;
#X obj 195 671 s rit3;
#X obj 104 664 s rit2;
#X obj 275 462 i;
#X obj 327 459 + 1;
#X floatatom 16 564 5 0 0 0 - - - 0;
#X msg 286 643 seed 448;
#X obj 280 572 sel 0 1;
#X obj 279 514 % 10;
#X floatatom 369 544 5 0 0 0 - - - 0;
#X obj 578 394 tgl 19 0 empty empty empty 0 -10 0 12 #fcfcfc #000000 #000000 0 1;
#X obj 577 503 random 3;
#X obj 579 557 sel 0 1 2;
#X obj 498 593 s rit1;
#X obj 650 640 s rit3;
#X obj 559 633 s rit2;
#X obj 730 431 i;
#X obj 782 428 + 1;
#X floatatom 471 533 5 0 0 0 - - - 0;
#X obj 735 541 sel 0 1;
#X obj 734 483 % 10;
#X floatatom 824 513 5 0 0 0 - - - 0;
#X obj 1054 385 tgl 19 0 empty empty empty 0 -10 0 12 #fcfcfc #000000 #000000 0 1;
#X obj 1053 494 random 3;
#X obj 1055 548 sel 0 1 2;
#X obj 974 584 s rit1;
#X obj 1126 631 s rit3;
#X obj 1035 624 s rit2;
#X obj 1206 422 i;
#X obj 1258 419 + 1;
#X floatatom 947 524 5 0 0 0 - - - 0;
#X obj 1211 532 sel 0 1;
#X obj 1210 474 % 10;
#X floatatom 1300 504 5 0 0 0 - - - 0;
#X obj 1537 391 tgl 19 0 empty empty empty 0 -10 0 12 #fcfcfc #000000 #000000 0 1;
#X obj 1536 500 random 3;
#X obj 1538 554 sel 0 1 2;
#X obj 1457 590 s rit1;
#X obj 1609 637 s rit3;
#X obj 1518 630 s rit2;
#X obj 1689 428 i;
#X obj 1741 425 + 1;
#X floatatom 1430 530 5 0 0 0 - - - 0;
#X obj 1694 538 sel 0 1;
#X obj 1693 480 % 10;
#X floatatom 1783 510 5 0 0 0 - - - 0;
#X obj 66 46 r gt1;
#X obj 957 46 r gt3;
#X obj 1477 51 r gt4;
#X obj 64 416 r gt5;
#X obj 519 385 r gt6;
#X obj 995 376 r gt7;
#X obj 1478 382 r gt8;
#X msg 745 273 seed 1080;
#X msg 1179 273 seed 500;
#X msg 1699 278 seed 666666;
#X obj 122 478 metro 200;
#X obj 577 447 metro 200;
#X msg 741 612 seed 1080;
#X msg 1217 603 seed 500;
#X obj 1053 438 metro 150;
#X msg 1700 609 seed 666666;
#X obj 1536 444 metro 100;
#X obj 506 70 r gt2;
#X connect 0 0 1 0;
#X connect 0 0 7 0;
#X connect 1 0 2 0;
#X connect 1 1 4 0;
#X connect 1 2 3 0;
#X connect 5 0 6 0;
#X connect 5 0 10 0;
#X connect 6 0 5 1;
#X connect 8 0 0 0;
#X connect 9 0 8 0;
#X connect 10 0 9 0;
#X connect 10 0 11 0;
#X connect 12 0 0 0;
#X connect 12 0 5 0;
#X connect 13 0 25 0;
#X connect 14 0 15 0;
#X connect 14 0 21 0;
#X connect 15 0 16 0;
#X connect 15 1 18 0;
#X connect 15 2 17 0;
#X connect 19 0 20 0;
#X connect 19 0 23 0;
#X connect 20 0 19 1;
#X connect 22 0 108 0;
#X connect 23 0 22 0;
#X connect 23 0 24 0;
#X connect 25 0 14 0;
#X connect 25 0 19 0;
#X connect 26 0 38 0;
#X connect 27 0 28 0;
#X connect 27 0 34 0;
#X connect 28 0 29 0;
#X connect 28 1 31 0;
#X connect 28 2 30 0;
#X connect 32 0 33 0;
#X connect 32 0 36 0;
#X connect 33 0 32 1;
#X connect 35 0 109 0;
#X connect 36 0 35 0;
#X connect 36 0 37 0;
#X connect 38 0 27 0;
#X connect 38 0 32 0;
#X connect 39 0 51 0;
#X connect 40 0 41 0;
#X connect 40 0 47 0;
#X connect 41 0 42 0;
#X connect 41 1 44 0;
#X connect 41 2 43 0;
#X connect 45 0 46 0;
#X connect 45 0 49 0;
#X connect 46 0 45 1;
#X connect 48 0 110 0;
#X connect 49 0 48 0;
#X connect 49 0 50 0;
#X connect 51 0 40 0;
#X connect 51 0 45 0;
#X connect 52 0 111 0;
#X connect 53 0 54 0;
#X connect 53 0 60 0;
#X connect 54 0 55 0;
#X connect 54 1 57 0;
#X connect 54 2 56 0;
#X connect 58 0 59 0;
#X connect 58 0 63 0;
#X connect 59 0 58 1;
#X connect 61 0 53 0;
#X connect 62 0 61 0;
#X connect 63 0 62 0;
#X connect 63 0 64 0;
#X connect 65 0 112 0;
#X connect 66 0 67 0;
#X connect 66 0 73 0;
#X connect 67 0 68 0;
#X connect 67 1 70 0;
#X connect 67 2 69 0;
#X connect 71 0 72 0;
#X connect 71 0 75 0;
#X connect 72 0 71 1;
#X connect 74 0 113 0;
#X connect 75 0 74 0;
#X connect 75 0 76 0;
#X connect 77 0 115 0;
#X connect 78 0 79 0;
#X connect 78 0 85 0;
#X connect 79 0 80 0;
#X connect 79 1 82 0;
#X connect 79 2 81 0;
#X connect 83 0 84 0;
#X connect 83 0 87 0;
#X connect 84 0 83 1;
#X connect 86 0 114 0;
#X connect 87 0 86 0;
#X connect 87 0 88 0;
#X connect 89 0 117 0;
#X connect 90 0 91 0;
#X connect 90 0 97 0;
#X connect 91 0 92 0;
#X connect 91 1 94 0;
#X connect 91 2 93 0;
#X connect 95 0 96 0;
#X connect 95 0 99 0;
#X connect 96 0 95 1;
#X connect 98 0 116 0;
#X connect 99 0 98 0;
#X connect 99 0 100 0;
#X connect 101 0 12 0;
#X connect 102 0 38 0;
#X connect 103 0 51 0;
#X connect 104 0 111 0;
#X connect 105 0 112 0;
#X connect 106 0 115 0;
#X connect 107 0 117 0;
#X connect 108 0 14 0;
#X connect 109 0 27 0;
#X connect 110 0 40 0;
#X connect 111 0 53 0;
#X connect 111 0 58 0;
#X connect 112 0 66 0;
#X connect 112 0 71 0;
#X connect 113 0 66 0;
#X connect 114 0 78 0;
#X connect 115 0 78 0;
#X connect 115 0 83 0;
#X connect 116 0 90 0;
#X connect 117 0 90 0;
#X connect 117 0 95 0;
#X connect 118 0 25 0;
#X restore 34 294 pd random_drum;
#N canvas 900 -17 1920 997 random_piano 0;
#X obj 277 92 i;
#X obj 329 89 + 1;
#X floatatom 18 194 5 0 0 0 - - - 0;
#X msg 288 273 seed 448;
#X obj 282 202 sel 0 1;
#X obj 281 144 % 10;
#X floatatom 371 174 5 0 0 0 - - - 0;
#X obj 124 108 metro 300;
#X obj 66 46 r gt9;
#X obj 124 164 random 4;
#X obj 126 218 sel 0 1 2 3;
#X obj 720 91 i;
#X obj 772 88 + 1;
#X floatatom 461 193 5 0 0 0 - - - 0;
#X msg 731 272 seed 448;
#X obj 725 201 sel 0 1;
#X obj 724 143 % 10;
#X floatatom 814 173 5 0 0 0 - - - 0;
#X obj 567 163 random 4;
#X obj 569 217 sel 0 1 2 3;
#X obj 1142 78 i;
#X obj 1194 75 + 1;
#X floatatom 883 180 5 0 0 0 - - - 0;
#X msg 1153 259 seed 448;
#X obj 1147 188 sel 0 1;
#X obj 1146 130 % 10;
#X floatatom 1236 160 5 0 0 0 - - - 0;
#X obj 989 94 metro 300;
#X obj 989 150 random 4;
#X obj 991 204 sel 0 1 2 3;
#X obj 1619 68 i;
#X obj 1671 65 + 1;
#X floatatom 1360 170 5 0 0 0 - - - 0;
#X msg 1630 249 seed 448;
#X obj 1624 178 sel 0 1;
#X obj 1623 120 % 10;
#X floatatom 1713 150 5 0 0 0 - - - 0;
#X obj 1466 84 metro 300;
#X obj 1466 140 random 4;
#X obj 1468 194 sel 0 1 2 3;
#X obj 289 465 i;
#X obj 341 462 + 1;
#X floatatom 30 567 5 0 0 0 - - - 0;
#X msg 300 646 seed 448;
#X obj 294 575 sel 0 1;
#X obj 293 517 % 10;
#X floatatom 383 547 5 0 0 0 - - - 0;
#X obj 136 481 metro 300;
#X obj 136 537 random 4;
#X obj 138 591 sel 0 1 2 3;
#X obj 739 443 i;
#X obj 791 440 + 1;
#X floatatom 480 545 5 0 0 0 - - - 0;
#X msg 750 624 seed 448;
#X obj 744 553 sel 0 1;
#X obj 743 495 % 10;
#X floatatom 833 525 5 0 0 0 - - - 0;
#X obj 586 515 random 4;
#X obj 588 569 sel 0 1 2 3;
#X obj 1173 456 i;
#X obj 1225 453 + 1;
#X floatatom 914 558 5 0 0 0 - - - 0;
#X msg 1184 637 seed 448;
#X obj 1178 566 sel 0 1;
#X obj 1177 508 % 10;
#X floatatom 1267 538 5 0 0 0 - - - 0;
#X obj 1020 472 metro 300;
#X obj 1020 528 random 4;
#X obj 1022 582 sel 0 1 2 3;
#X obj 1671 451 i;
#X obj 1723 448 + 1;
#X floatatom 1412 553 5 0 0 0 - - - 0;
#X msg 1682 632 seed 448;
#X obj 1676 561 sel 0 1;
#X obj 1675 503 % 10;
#X floatatom 1765 533 5 0 0 0 - - - 0;
#X obj 1518 523 random 4;
#X obj 1520 577 sel 0 1 2 3;
#X obj 509 45 r gt10;
#X obj 931 32 r gt11;
#X obj 1408 22 r gt12;
#X obj 78 419 r gt13;
#X obj 528 396 r gt14;
#X obj 962 410 r gt15;
#X obj 1460 405 r gt16;
#X obj 567 107 metro 200;
#X obj 586 459 metro 100;
#X obj 1518 467 metro 200;
#X obj 1439 613 s rt1;
#X obj 1451 655 s rt4;
#X obj 1478 693 s rt5;
#X obj 1550 685 s rt8;
#X obj 941 617 s rt1;
#X obj 953 660 s rt2;
#X obj 980 698 s rt6;
#X obj 1052 690 s rt7;
#X obj 618 677 s rt4;
#X obj 546 685 s rt3;
#X obj 519 647 s rt2;
#X obj 508 605 s rt1;
#X obj 168 699 s rt8;
#X obj 96 707 s rt6;
#X obj 69 669 s rt3;
#X obj 57 626 s rt1;
#X obj 156 326 s rt4;
#X obj 84 334 s rt3;
#X obj 57 296 s rt2;
#X obj 45 254 s rt1;
#X obj 488 253 s rt1;
#X obj 500 294 s rt2;
#X obj 527 333 s rt6;
#X obj 599 325 s rt7;
#X obj 910 240 s rt3;
#X obj 922 282 s rt4;
#X obj 949 320 s rt6;
#X obj 1021 312 s rt7;
#X obj 1387 230 s rt1;
#X obj 1399 272 s rt4;
#X obj 1426 310 s rt5;
#X obj 1498 302 s rt8;
#X connect 0 0 1 0;
#X connect 0 0 5 0;
#X connect 1 0 0 1;
#X connect 3 0 9 0;
#X connect 4 0 3 0;
#X connect 5 0 4 0;
#X connect 5 0 6 0;
#X connect 7 0 0 0;
#X connect 7 0 9 0;
#X connect 8 0 7 0;
#X connect 9 0 2 0;
#X connect 9 0 10 0;
#X connect 10 0 107 0;
#X connect 10 1 106 0;
#X connect 10 2 105 0;
#X connect 10 3 104 0;
#X connect 11 0 12 0;
#X connect 11 0 16 0;
#X connect 12 0 11 1;
#X connect 14 0 18 0;
#X connect 15 0 14 0;
#X connect 16 0 15 0;
#X connect 16 0 17 0;
#X connect 18 0 13 0;
#X connect 18 0 19 0;
#X connect 19 0 108 0;
#X connect 19 1 109 0;
#X connect 19 2 110 0;
#X connect 19 3 111 0;
#X connect 20 0 21 0;
#X connect 20 0 25 0;
#X connect 21 0 20 1;
#X connect 23 0 28 0;
#X connect 24 0 23 0;
#X connect 25 0 24 0;
#X connect 25 0 26 0;
#X connect 27 0 20 0;
#X connect 27 0 28 0;
#X connect 28 0 22 0;
#X connect 28 0 29 0;
#X connect 29 0 112 0;
#X connect 29 1 113 0;
#X connect 29 2 114 0;
#X connect 29 3 115 0;
#X connect 30 0 31 0;
#X connect 30 0 35 0;
#X connect 31 0 30 1;
#X connect 33 0 38 0;
#X connect 34 0 33 0;
#X connect 35 0 34 0;
#X connect 35 0 36 0;
#X connect 37 0 30 0;
#X connect 37 0 38 0;
#X connect 38 0 32 0;
#X connect 38 0 39 0;
#X connect 39 0 116 0;
#X connect 39 1 117 0;
#X connect 39 2 118 0;
#X connect 39 3 119 0;
#X connect 40 0 41 0;
#X connect 40 0 45 0;
#X connect 41 0 40 1;
#X connect 43 0 48 0;
#X connect 44 0 43 0;
#X connect 45 0 44 0;
#X connect 45 0 46 0;
#X connect 47 0 40 0;
#X connect 47 0 48 0;
#X connect 48 0 42 0;
#X connect 48 0 49 0;
#X connect 49 0 103 0;
#X connect 49 1 102 0;
#X connect 49 2 101 0;
#X connect 49 3 100 0;
#X connect 50 0 51 0;
#X connect 50 0 55 0;
#X connect 51 0 50 1;
#X connect 53 0 57 0;
#X connect 54 0 53 0;
#X connect 55 0 54 0;
#X connect 55 0 56 0;
#X connect 57 0 52 0;
#X connect 57 0 58 0;
#X connect 58 0 99 0;
#X connect 58 1 98 0;
#X connect 58 2 97 0;
#X connect 58 3 96 0;
#X connect 59 0 60 0;
#X connect 59 0 64 0;
#X connect 60 0 59 1;
#X connect 62 0 67 0;
#X connect 63 0 62 0;
#X connect 64 0 63 0;
#X connect 64 0 65 0;
#X connect 66 0 59 0;
#X connect 66 0 67 0;
#X connect 67 0 61 0;
#X connect 67 0 68 0;
#X connect 68 0 92 0;
#X connect 68 1 93 0;
#X connect 68 2 94 0;
#X connect 68 3 95 0;
#X connect 69 0 70 0;
#X connect 69 0 74 0;
#X connect 70 0 69 1;
#X connect 72 0 76 0;
#X connect 73 0 72 0;
#X connect 74 0 73 0;
#X connect 74 0 75 0;
#X connect 76 0 71 0;
#X connect 76 0 77 0;
#X connect 77 0 88 0;
#X connect 77 1 89 0;
#X connect 77 2 90 0;
#X connect 77 3 91 0;
#X connect 78 0 85 0;
#X connect 79 0 27 0;
#X connect 80 0 37 0;
#X connect 81 0 47 0;
#X connect 82 0 86 0;
#X connect 83 0 66 0;
#X connect 84 0 87 0;
#X connect 85 0 11 0;
#X connect 85 0 18 0;
#X connect 86 0 50 0;
#X connect 86 0 57 0;
#X connect 87 0 69 0;
#X connect 87 0 76 0;
#X restore 267 294 pd random_piano;
#N canvas 399 0 1920 997 random_guitar 0;
#X obj 277 92 i;
#X obj 329 89 + 1;
#X floatatom 18 194 5 0 0 0 - - - 0;
#X msg 288 273 seed 448;
#X obj 282 202 sel 0 1;
#X obj 281 144 % 10;
#X floatatom 371 174 5 0 0 0 - - - 0;
#X obj 124 108 metro 300;
#X obj 124 164 random 4;
#X obj 126 218 sel 0 1 2 3;
#X obj 720 91 i;
#X obj 772 88 + 1;
#X floatatom 461 193 5 0 0 0 - - - 0;
#X obj 725 201 sel 0 1;
#X obj 724 143 % 10;
#X floatatom 814 173 5 0 0 0 - - - 0;
#X obj 567 163 random 4;
#X obj 569 217 sel 0 1 2 3;
#X obj 1142 78 i;
#X obj 1194 75 + 1;
#X floatatom 883 180 5 0 0 0 - - - 0;
#X obj 1147 188 sel 0 1;
#X obj 1146 130 % 10;
#X floatatom 1236 160 5 0 0 0 - - - 0;
#X obj 989 94 metro 300;
#X obj 989 150 random 4;
#X obj 991 204 sel 0 1 2 3;
#X obj 1619 68 i;
#X obj 1671 65 + 1;
#X floatatom 1360 170 5 0 0 0 - - - 0;
#X obj 1624 178 sel 0 1;
#X obj 1623 120 % 10;
#X floatatom 1713 150 5 0 0 0 - - - 0;
#X obj 1466 84 metro 300;
#X obj 1466 140 random 4;
#X obj 1468 194 sel 0 1 2 3;
#X obj 289 465 i;
#X obj 341 462 + 1;
#X floatatom 30 567 5 0 0 0 - - - 0;
#X msg 300 646 seed 448;
#X obj 294 575 sel 0 1;
#X obj 293 517 % 10;
#X floatatom 383 547 5 0 0 0 - - - 0;
#X obj 136 537 random 4;
#X obj 138 591 sel 0 1 2 3;
#X obj 739 443 i;
#X obj 791 440 + 1;
#X floatatom 480 545 5 0 0 0 - - - 0;
#X obj 744 553 sel 0 1;
#X obj 743 495 % 10;
#X floatatom 833 525 5 0 0 0 - - - 0;
#X obj 586 515 random 4;
#X obj 588 569 sel 0 1 2 3;
#X obj 1173 456 i;
#X obj 1225 453 + 1;
#X floatatom 914 558 5 0 0 0 - - - 0;
#X obj 1178 566 sel 0 1;
#X obj 1177 508 % 10;
#X floatatom 1267 538 5 0 0 0 - - - 0;
#X obj 1020 528 random 4;
#X obj 1022 582 sel 0 1 2 3;
#X obj 1671 451 i;
#X obj 1723 448 + 1;
#X floatatom 1412 553 5 0 0 0 - - - 0;
#X obj 1676 561 sel 0 1;
#X obj 1675 503 % 10;
#X floatatom 1765 533 5 0 0 0 - - - 0;
#X obj 1518 523 random 4;
#X obj 1520 577 sel 0 1 2 3;
#X obj 66 46 r gt17;
#X obj 509 45 r gt18;
#X obj 931 32 r gt19;
#X obj 1408 21 r gt20;
#X obj 78 419 r gt21;
#X obj 528 396 r gt22;
#X obj 962 410 r gt23;
#X obj 1460 405 r gt24;
#X obj 567 107 metro 300;
#X msg 731 272 seed 1080;
#X msg 1153 259 seed 500;
#X msg 1630 249 seed 666666;
#X obj 136 480 metro 200;
#X msg 750 624 seed 1080;
#X obj 586 459 metro 200;
#X msg 1184 637 seed 500;
#X obj 1020 472 metro 150;
#X msg 1682 632 seed 666666;
#X obj 1518 466 metro 100;
#X obj 941 617 s rt13;
#X obj 953 660 s grt14;
#X obj 980 698 s rt18;
#X obj 1052 690 s rt19;
#X obj 1439 613 s rt13;
#X obj 1451 655 s rt16;
#X obj 1478 693 s rt17;
#X obj 1550 685 s rt20;
#X obj 618 677 s rt16;
#X obj 546 685 s rt15;
#X obj 519 647 s rt14;
#X obj 507 604 s rt13;
#X obj 168 699 s rt20;
#X obj 96 707 s rt16;
#X obj 69 669 s rt15;
#X obj 57 627 s rt13;
#X obj 156 326 s rt16;
#X obj 84 334 s rt15;
#X obj 57 296 s rt14;
#X obj 45 254 s rt13;
#X obj 599 325 s rt19;
#X obj 526 333 s rt15;
#X obj 500 295 s rt14;
#X obj 488 252 s rt13;
#X obj 1021 312 s rt19;
#X obj 950 320 s rt18;
#X obj 922 282 s rt16;
#X obj 910 240 s rt15;
#X obj 1498 302 s rt20;
#X obj 1426 310 s rt16;
#X obj 1399 272 s rt14;
#X obj 1387 230 s rt13;
#X connect 0 0 1 0;
#X connect 0 0 5 0;
#X connect 1 0 0 1;
#X connect 3 0 8 0;
#X connect 4 0 3 0;
#X connect 5 0 4 0;
#X connect 5 0 6 0;
#X connect 7 0 0 0;
#X connect 7 0 8 0;
#X connect 8 0 2 0;
#X connect 8 0 9 0;
#X connect 9 0 107 0;
#X connect 9 1 106 0;
#X connect 9 2 105 0;
#X connect 9 3 104 0;
#X connect 10 0 11 0;
#X connect 10 0 14 0;
#X connect 11 0 10 1;
#X connect 13 0 78 0;
#X connect 14 0 13 0;
#X connect 14 0 15 0;
#X connect 16 0 12 0;
#X connect 16 0 17 0;
#X connect 17 0 111 0;
#X connect 17 1 110 0;
#X connect 17 2 109 0;
#X connect 17 3 108 0;
#X connect 18 0 19 0;
#X connect 18 0 22 0;
#X connect 19 0 18 1;
#X connect 21 0 79 0;
#X connect 22 0 21 0;
#X connect 22 0 23 0;
#X connect 24 0 18 0;
#X connect 24 0 25 0;
#X connect 25 0 20 0;
#X connect 25 0 26 0;
#X connect 26 0 115 0;
#X connect 26 1 114 0;
#X connect 26 2 113 0;
#X connect 26 3 112 0;
#X connect 27 0 28 0;
#X connect 27 0 31 0;
#X connect 28 0 27 1;
#X connect 30 0 80 0;
#X connect 31 0 30 0;
#X connect 31 0 32 0;
#X connect 33 0 27 0;
#X connect 33 0 34 0;
#X connect 34 0 29 0;
#X connect 34 0 35 0;
#X connect 35 0 119 0;
#X connect 35 1 118 0;
#X connect 35 2 117 0;
#X connect 35 3 116 0;
#X connect 36 0 37 0;
#X connect 36 0 41 0;
#X connect 37 0 36 1;
#X connect 39 0 43 0;
#X connect 40 0 39 0;
#X connect 41 0 40 0;
#X connect 41 0 42 0;
#X connect 43 0 38 0;
#X connect 43 0 44 0;
#X connect 44 0 103 0;
#X connect 44 1 102 0;
#X connect 44 2 101 0;
#X connect 44 3 100 0;
#X connect 45 0 46 0;
#X connect 45 0 49 0;
#X connect 46 0 45 1;
#X connect 48 0 82 0;
#X connect 49 0 48 0;
#X connect 49 0 50 0;
#X connect 51 0 47 0;
#X connect 51 0 52 0;
#X connect 52 0 99 0;
#X connect 52 1 98 0;
#X connect 52 2 97 0;
#X connect 52 3 96 0;
#X connect 53 0 54 0;
#X connect 53 0 57 0;
#X connect 54 0 53 1;
#X connect 56 0 84 0;
#X connect 57 0 56 0;
#X connect 57 0 58 0;
#X connect 59 0 55 0;
#X connect 59 0 60 0;
#X connect 60 0 88 0;
#X connect 60 1 89 0;
#X connect 60 2 90 0;
#X connect 60 3 91 0;
#X connect 61 0 62 0;
#X connect 61 0 65 0;
#X connect 62 0 61 1;
#X connect 64 0 86 0;
#X connect 65 0 64 0;
#X connect 65 0 66 0;
#X connect 67 0 63 0;
#X connect 67 0 68 0;
#X connect 68 0 92 0;
#X connect 68 1 93 0;
#X connect 68 2 94 0;
#X connect 68 3 95 0;
#X connect 69 0 7 0;
#X connect 70 0 77 0;
#X connect 71 0 24 0;
#X connect 72 0 33 0;
#X connect 73 0 81 0;
#X connect 74 0 83 0;
#X connect 75 0 85 0;
#X connect 76 0 87 0;
#X connect 77 0 10 0;
#X connect 77 0 16 0;
#X connect 78 0 16 0;
#X connect 79 0 25 0;
#X connect 80 0 34 0;
#X connect 81 0 36 0;
#X connect 81 0 43 0;
#X connect 82 0 51 0;
#X connect 83 0 45 0;
#X connect 83 0 51 0;
#X connect 84 0 59 0;
#X connect 85 0 53 0;
#X connect 85 0 59 0;
#X connect 86 0 67 0;
#X connect 87 0 61 0;
#X connect 87 0 67 0;
#X restore 143 293 pd random_guitar;
#X connect 4 0 3 0;
